<svg id="Layer_1" data-name="Layer 1" xmlns="http://www.w3.org/2000/svg" viewBox="0 0 648 561.83"><defs><style>.cls-1{fill:#414042;}</style></defs><path class="cls-1" d="M126.7,63.44a70.44,70.44,0,0,1-4.52,25.79,56.1,56.1,0,0,1-5.8,10.68,50.31,50.31,0,0,1-7.78,9.41,62.58,62.58,0,0,1-22.62,13q-13.58,4.61-31.68,4.61h-38l-9-.36a8.14,8.14,0,0,1-5.07-2.72A7.73,7.73,0,0,1,0,118.37V7.42A7,7,0,0,1,2.08,2.26,7,7,0,0,1,7.24.18H54.3Q72.41.18,86,4.71A61.57,61.57,0,0,1,108.6,17.56a51.42,51.42,0,0,1,7.78,9.32,51.63,51.63,0,0,1,5.8,10.77A70.48,70.48,0,0,1,126.7,63.44Zm155.66.09a61.6,61.6,0,0,1-5.07,25,56.7,56.7,0,0,1-6.51,10.68,54.46,54.46,0,0,1-8,9.41,67.81,67.81,0,0,1-22.44,13.58,86.25,86.25,0,0,1-57.2,0,67.71,67.71,0,0,1-22.44-13.58,68.84,68.84,0,0,1-8.06-9.5,65.59,65.59,0,0,1-6.42-10.59,61.83,61.83,0,0,1-5.07-25.07,60.57,60.57,0,0,1,5.07-24.89,57.34,57.34,0,0,1,6.51-10.68,60.9,60.9,0,0,1,8-9.59A66.36,66.36,0,0,1,183.17,4.8a87.6,87.6,0,0,1,57.2,0,66.45,66.45,0,0,1,22.44,13.48,69.45,69.45,0,0,1,8.05,9.5,61.86,61.86,0,0,1,6.43,10.77A61.64,61.64,0,0,1,282.36,63.53ZM47.06,295.39V337.2a7.11,7.11,0,0,1-7.24,7.24H7.24a6.86,6.86,0,0,1-5.16-2.17A7.08,7.08,0,0,1,0,337.2V225a7,7,0,0,1,2.08-5.16,7,7,0,0,1,5.16-2.08H48.15a7.53,7.53,0,0,1,3.71,1.09,6,6,0,0,1,2.62,2.71L79.82,267.7a1.83,1.83,0,0,0,3.44-.91V225a7.11,7.11,0,0,1,7.24-7.24h32.58a7.11,7.11,0,0,1,7.24,7.24V337.2a7.11,7.11,0,0,1-7.24,7.24H82.17a7.52,7.52,0,0,1-3.71-1.08,6,6,0,0,1-2.62-2.72L50.5,294.49a1.83,1.83,0,0,0-3.44.9ZM289.6,280.73a61.6,61.6,0,0,1-5.07,25A56.18,56.18,0,0,1,278,316.39a54,54,0,0,1-8,9.41,67.71,67.71,0,0,1-22.44,13.58,86.25,86.25,0,0,1-57.2,0A67.71,67.71,0,0,1,168,325.8a68.84,68.84,0,0,1-8.06-9.5,65.59,65.59,0,0,1-6.42-10.59,61.83,61.83,0,0,1-5.07-25.07,60.6,60.6,0,0,1,5.07-24.89A57.34,57.34,0,0,1,160,245.07a60.9,60.9,0,0,1,8-9.59A66.52,66.52,0,0,1,190.41,222a87.6,87.6,0,0,1,57.2,0,66.52,66.52,0,0,1,22.44,13.48,69.45,69.45,0,0,1,8.06,9.5,56.73,56.73,0,0,1,11.49,35.75Zm115.84-63.35a7.11,7.11,0,0,1,7.24,7.24v27.15a7.11,7.11,0,0,1-7.24,7.24H385.53a7.11,7.11,0,0,0-7.24,7.24v70.59a7.11,7.11,0,0,1-7.24,7.24H338.47a6.86,6.86,0,0,1-5.16-2.17,7.09,7.09,0,0,1-2.08-5.07V266.25A7.11,7.11,0,0,0,324,259H304.08a6.86,6.86,0,0,1-5.16-2.17,7.09,7.09,0,0,1-2.08-5.07V224.62a7.11,7.11,0,0,1,7.24-7.24ZM108.6,434.58a7.11,7.11,0,0,1,7.24,7.24V469a7.11,7.11,0,0,1-7.24,7.24H88.69a7.11,7.11,0,0,0-7.24,7.24V554a7.11,7.11,0,0,1-7.24,7.24H41.63a6.86,6.86,0,0,1-5.16-2.17A7.09,7.09,0,0,1,34.39,554V483.45a7.11,7.11,0,0,0-7.24-7.24H7.24A6.86,6.86,0,0,1,2.08,474,7.09,7.09,0,0,1,0,469V441.82a7,7,0,0,1,2.08-5.16,7,7,0,0,1,5.16-2.08Zm90.32,123.08-19.37-37.1a1.2,1.2,0,0,0-1.08-.55,1,1,0,0,0-1.09,1.09v33.3a7.11,7.11,0,0,1-7.24,7.24H137.56a6.86,6.86,0,0,1-5.16-2.17,7.08,7.08,0,0,1-2.08-5.07V442.18a7.12,7.12,0,0,1,7.24-7.24h45.25a93.42,93.42,0,0,1,25.79,3.17A51.81,51.81,0,0,1,226.7,447a35.08,35.08,0,0,1,10.59,13.67,43.86,43.86,0,0,1,3.44,17.55q0,9.78-2.53,16.29a46.36,46.36,0,0,1-5.62,10.68,27.39,27.39,0,0,1-3.62,4,7.19,7.19,0,0,0-2.17,5.25,6.63,6.63,0,0,0,1.09,3.8l20.27,32.4a7.19,7.19,0,0,1,1.27,3.8,6.12,6.12,0,0,1-1.09,3.44,6.52,6.52,0,0,1-6.15,3.8H205.25a6.65,6.65,0,0,1-3.62-1.17A8,8,0,0,1,198.92,557.66ZM344.8,434.58a9.87,9.87,0,0,1,5.71,2,8.45,8.45,0,0,1,3.52,4.89l33.13,112.76a5.29,5.29,0,0,1-.64,5,5.35,5.35,0,0,1-4.61,2.08h-38a8.62,8.62,0,0,1-5.61-2.08,8.38,8.38,0,0,1-3.08-5.16l-.72-3.8a8.25,8.25,0,0,0-3.17-5,8.8,8.8,0,0,0-5.52-2.08h-9.05a8.65,8.65,0,0,0-5.61,2.08,8.33,8.33,0,0,0-3.08,5l-.72,3.8a9.5,9.5,0,0,1-8.69,7.24h-38a5.14,5.14,0,0,1-4.53-2.08,5.89,5.89,0,0,1-.72-5l33.12-112.76a9.58,9.58,0,0,1,3.62-4.89,9.42,9.42,0,0,1,5.61-2Zm49.78,63.71a61.59,61.59,0,0,1,5.07-25q1.44-3.09,3.8-7.06A87.32,87.32,0,0,1,408.7,459a36.24,36.24,0,0,1,5.07-6A64.29,64.29,0,0,1,435,439.56a71.93,71.93,0,0,1,26.52-4.8q13,0,22.44,3.17a89.13,89.13,0,0,1,15.75,6.79,84.73,84.73,0,0,1,7.78,5.61,6.87,6.87,0,0,1,2.54,5.43,7.61,7.61,0,0,1-1.09,4L494.49,482a6,6,0,0,1-1.63,1.72A9.1,9.1,0,0,1,490.6,485a6.35,6.35,0,0,1-2.26.45,5.58,5.58,0,0,1-3.44-1.08,8.8,8.8,0,0,0-1.45-.73,35.91,35.91,0,0,0-7.42-3.07,27.8,27.8,0,0,0-8.87-1.45H467q-9.6,0-15.66,5.34a18.85,18.85,0,0,0,0,27.69q6.06,5.34,15.66,5.34h.18a34.06,34.06,0,0,0,16.29-4.34l1.45-.73a7,7,0,0,1,3.44-.9,6.35,6.35,0,0,1,2.26.45,11.08,11.08,0,0,1,2.26,1.18,5.14,5.14,0,0,1,1.63,1.62L509,536.85a5.91,5.91,0,0,1,1.09,4,7.06,7.06,0,0,1-2.54,5.61,50.15,50.15,0,0,1-7.78,5.43A77.93,77.93,0,0,1,484,558.75a72.55,72.55,0,0,1-22.44,3.08A70.75,70.75,0,0,1,435,556.94a65.52,65.52,0,0,1-21.26-13.58,61.3,61.3,0,0,1-7.88-9.5,72.7,72.7,0,0,1-6.24-10.59A61.57,61.57,0,0,1,394.58,498.29Zm223,3.44,29.32,48.87a7.3,7.3,0,0,1-6.33,11H603.63a7.06,7.06,0,0,1-3.71-1.17,7.75,7.75,0,0,1-2.8-2.81l-19.91-39.82a1.82,1.82,0,0,0-2.09-1,1.56,1.56,0,0,0-1.35,1.72V554.4a7.11,7.11,0,0,1-7.24,7.24H534a6.83,6.83,0,0,1-5.16-2.17,7.08,7.08,0,0,1-2.08-5.07V442.18a7.12,7.12,0,0,1,7.24-7.24h32.58a7.12,7.12,0,0,1,7.24,7.24v34.58a1.7,1.7,0,0,0,1.45,1.8,1.52,1.52,0,0,0,2-1.08l16.47-38.19a6.67,6.67,0,0,1,2.62-3.08,7,7,0,0,1,3.89-1.27h37.47A7.19,7.19,0,0,1,644,445.62l-26.61,49.05a7,7,0,0,0-.91,3.44A6.32,6.32,0,0,0,617.57,501.73Z"/></svg>